# xmcd
#
# Track frame offsets:
#  150
#  19722
#  42485
#  66775
#  85668
#  100655
#  124313
#  143219
#  157130
#  171342
#
# Disc length: 2736 seconds
#
# Revision: 0
# Processed by: cddbd v1.5.2PL0 Copyright (c) Steve Scherf et al.
# Submitted via: Collectorz.com_Music_Collector 6.11
#
DISCID=860aae0a
DTITLE=Various Artist - 1991 Rock On Disc 1
DYEAR=1999
DGENRE=90's Compilations
TTITLE0=David A. Stewart - Lily Was Here
TTITLE1=Blackbox - Strike It Up
TTITLE2=C&C Music Factory - Things That Make You Go Hmmm
TTITLE3=Martika - Love...Thy Will Be Done
TTITLE4=Warrant - Cherry Pie
TTITLE5=Jimmy Barnes - When Your Love Is Gone
TTITLE6=Roxus - Where Are You Now
TTITLE7=Kylie Minogue - Step Back In Time
TTITLE8=The Rockmelons featuring Deni Hines - Ain't No Sunshine
TTITLE9=Guru Josh - Infinity
EXTD=
EXTT0=
EXTT1=
EXTT2=
EXTT3=
EXTT4=
EXTT5=
EXTT6=
EXTT7=
EXTT8=
EXTT9=
PLAYORDER=
